solid OpenSCAD_Model
  facet normal -0.92388 -0.382683 0
    outer loop
      vertex -140.416 -60.7636 0
      vertex -142.256 -56.3231 5
      vertex -142.256 -56.3231 0
    endloop
  endfacet
  facet normal -0.92388 -0.382683 0
    outer loop
      vertex -142.256 -56.3231 5
      vertex -140.416 -60.7636 0
      vertex -140.416 -60.7636 5
    endloop
  endfacet
  facet normal -0.99889 -0.0471055 0
    outer loop
      vertex -152.698 -9.60695 0
      vertex -152.924 -4.80585 5
      vertex -152.924 -4.80585 0
    endloop
  endfacet
  facet normal -0.99889 -0.0471055 0
    outer loop
      vertex -152.924 -4.80585 5
      vertex -152.698 -9.60695 0
      vertex -152.698 -9.60695 5
    endloop
  endfacet
  facet normal 0 0 -1
    outer loop
      vertex -117.195 -98.3381 0
      vertex -50.0834 -41.4326 0
      vertex -49.7886 -41.7776 0
    endloop
  endfacet
  facet normal 0 0 -1
    outer loop
      vertex -117.889 -97.5259 0
      vertex -50.0834 -41.4326 0
      vertex -117.195 -98.3381 0
    endloop
  endfacet
  facet normal -0 0 -1
    outer loop
      vertex -50.0834 -41.4326 0
      vertex -117.889 -97.5259 0
      vertex -51.3601 -39.839 0
    endloop
  endfacet
  facet normal 0 0 -1
    outer loop
      vertex -120.894 -93.7748 0
      vertex -51.3601 -39.839 0
      vertex -117.889 -97.5259 0
    endloop
  endfacet
  facet normal -0 0 -1
    outer loop
      vertex -51.3601 -39.839 0
      vertex -120.894 -93.7748 0
      vertex -52.5861 -38.206 0
    endloop
  endfacet
  facet normal 0 0 -1
    outer loop
      vertex -123.78 -89.9311 0
      vertex -52.5861 -38.206 0
      vertex -120.894 -93.7748 0
    endloop
  endfacet
  facet normal -0 0 -1
    outer loop
      vertex -52.5861 -38.206 0
      vertex -123.78 -89.9311 0
      vertex -53.7602 -36.5354 0
    endloop
  endfacet
  facet normal 0 0 -1
    outer loop
      vertex -126.543 -85.9988 0
      vertex -53.7602 -36.5354 0
      vertex -123.78 -89.9311 0
    endloop
  endfacet
  facet normal -0 0 -1
    outer loop
      vertex -53.7602 -36.5354 0
      vertex -126.543 -85.9988 0
      vertex -54.8813 -34.8287 0
    endloop
  endfacet
  facet normal 0 0 -1
    outer loop
      vertex -129.182 -81.9815 0
      vertex -54.8813 -34.8287 0
      vertex -126.543 -85.9988 0
    endloop
  endfacet
  facet normal -0 0 -1
    outer loop
      vertex -54.8813 -34.8287 0
      vertex -129.182 -81.9815 0
      vertex -55.9482 -33.0877 0
    endloop
  endfacet
  facet normal 0 0 -1
    outer loop
      vertex -131.694 -77.8833 0
      vertex -55.9482 -33.0877 0
      vertex -129.182 -81.9815 0
    endloop
  endfacet
  facet normal -0 0 -1
    outer loop
      vertex -55.9482 -33.0877 0
      vertex -131.694 -77.8833 0
      vertex -56.9599 -31.314 0
    endloop
  endfacet
  facet normal 0 0 -1
    outer loop
      vertex -134.075 -73.7083 0
      vertex -56.9599 -31.314 0
      vertex -131.694 -77.8833 0
    endloop
  endfacet
  facet normal -0 0 -1
    outer loop
      vertex -56.9599 -31.314 0
      vertex -134.075 -73.7083 0
      vertex -57.9154 -29.5094 0
    endloop
  endfacet
  facet normal 0 0 -1
    outer loop
      vertex -136.324 -69.4605 0
      vertex -57.9154 -29.5094 0
      vertex -134.075 -73.7083 0
    endloop
  endfacet
  facet normal -0 0 -1
    outer loop
      vertex -57.9154 -29.5094 0
      vertex -136.324 -69.4605 0
      vertex -58.8138 -27.6757 0
    endloop
  endfacet
  facet normal 0 0 -1
    outer loop
      vertex -138.439 -65.1442 0
      vertex -58.8138 -27.6757 0
      vertex -136.324 -69.4605 0
    endloop
  endfacet
  facet normal -0 0 -1
    outer loop
      vertex -58.8138 -27.6757 0
      vertex -138.439 -65.1442 0
      vertex -59.654 -25.8146 0
    endloop
  endfacet
  facet normal 0 0 -1
    outer loop
      vertex -140.416 -60.7636 0
      vertex -59.654 -25.8146 0
      vertex -138.439 -65.1442 0
    endloop
  endfacet
  facet normal -0 0 -1
    outer loop
      vertex -59.654 -25.8146 0
      vertex -140.416 -60.7636 0
      vertex -60.4355 -23.9281 0
    endloop
  endfacet
  facet normal 0 0 -1
    outer loop
      vertex -142.256 -56.3231 0
      vertex -60.4355 -23.9281 0
      vertex -140.416 -60.7636 0
    endloop
  endfacet
  facet normal -0 0 -1
    outer loop
      vertex -60.4355 -23.9281 0
      vertex -142.256 -56.3231 0
      vertex -61.1572 -22.018 0
    endloop
  endfacet
  facet normal 0 0 -1
    outer loop
      vertex -143.955 -51.8269 0
      vertex -61.1572 -22.018 0
      vertex -142.256 -56.3231 0
    endloop
  endfacet
  facet normal -0 0 -1
    outer loop
      vertex -61.1572 -22.018 0
      vertex -143.955 -51.8269 0
      vertex -61.8187 -20.0861 0
    endloop
  endfacet
  facet normal 0 0 -1
    outer loop
      vertex -145.512 -47.2796 0
      vertex -61.8187 -20.0861 0
      vertex -143.955 -51.8269 0
    endloop
  endfacet
  facet normal -0 0 -1
    outer loop
      vertex -61.8187 -20.0861 0
      vertex -145.512 -47.2796 0
      vertex -62.4191 -18.1344 0
    endloop
  endfacet
  facet normal 0 0 -1
    outer loop
      vertex -146.925 -42.6856 0
      vertex -62.4191 -18.1344 0
      vertex -145.512 -47.2796 0
    endloop
  endfacet
  facet normal -0 0 -1
    outer loop
      vertex -62.4191 -18.1344 0
      vertex -146.925 -42.6856 0
      vertex -62.9579 -16.1648 0
    endloop
  endfacet
  facet normal 0 0 -1
    outer loop
      vertex -148.193 -38.0496 0
      vertex -62.9579 -16.1648 0
      vertex -146.925 -42.6856 0
    endloop
  endfacet
  facet normal -0 0 -1
    outer loop
      vertex -62.9579 -16.1648 0
      vertex -148.193 -38.0496 0
      vertex -63.4346 -14.1793 0
    endloop
  endfacet
  facet normal 0 0 -1
    outer loop
      vertex -149.315 -33.3759 0
      vertex -63.4346 -14.1793 0
      vertex -148.193 -38.0496 0
    endloop
  endfacet
  facet normal -0 0 -1
    outer loop
      vertex -63.4346 -14.1793 0
      vertex -149.315 -33.3759 0
      vertex -63.8487 -12.1798 0
    endloop
  endfacet
  facet normal 0 0 -1
    outer loop
      vertex -150.29 -28.6693 0
      vertex -63.8487 -12.1798 0
      vertex -149.315 -33.3759 0
    endloop
  endfacet
  facet normal -0 0 -1
    outer loop
      vertex -63.8487 -12.1798 0
      vertex -150.29 -28.6693 0
      vertex -64.1997 -10.1682 0
    endloop
  endfacet
  facet normal 0 0 -1
    outer loop
      vertex -151.116 -23.9345 0
      vertex -64.1997 -10.1682 0
      vertex -150.29 -28.6693 0
    endloop
  endfacet
  facet normal -0 0 -1
    outer loop
      vertex -64.1997 -10.1682 0
      vertex -151.116 -23.9345 0
      vertex -64.4875 -8.14666 0
    endloop
  endfacet
  facet normal 0 0 -1
    outer loop
      vertex -151.794 -19.176 0
      vertex -64.4875 -8.14666 0
      vertex -151.116 -23.9345 0
    endloop
  endfacet
  facet normal -0 0 -1
    outer loop
      vertex -64.4875 -8.14666 0
      vertex -151.794 -19.176 0
      vertex -64.7115 -6.11704 0
    endloop
  endfacet
  facet normal 0 0 -1
    outer loop
      vertex -152.321 -14.3986 0
      vertex -64.7115 -6.11704 0
      vertex -151.794 -19.176 0
    endloop
  endfacet
  facet normal -0 0 -1
    outer loop
      vertex -64.7115 -6.11704 0
      vertex -152.321 -14.3986 0
      vertex -64.8717 -4.08138 0
    endloop
  endfacet
  facet normal 0 0 -1
    outer loop
      vertex -152.698 -9.60695 0
      vertex -64.8717 -4.08138 0
      vertex -152.321 -14.3986 0
    endloop
  endfacet
  facet normal -0 0 -1
    outer loop
      vertex -64.8717 -4.08138 0
      vertex -152.698 -9.60695 0
      vertex -64.9679 -2.0417 0
    endloop
  endfacet
  facet normal 0 0 -1
    outer loop
      vertex -152.924 -4.80585 0
      vertex -64.9679 -2.0417 0
      vertex -152.698 -9.60695 0
    endloop
  endfacet
  facet normal -0 0 -1
    outer loop
      vertex -64.9679 -2.0417 0
      vertex -152.924 -4.80585 0
      vertex -65 0 0
    endloop
  endfacet
  facet normal -0 0 -1
    outer loop
      vertex -65 0 0
      vertex -152.924 -4.80585 0
      vertex -153 0 0
    endloop
  endfacet
  facet normal 0 0 1
    outer loop
      vertex -76.6137 -11.9224 5
      vertex -128.239 -62.6379 5
      vertex -66.3531 -40.1132 5
    endloop
  endfacet
  facet normal 0 -0 1
    outer loop
      vertex -128.239 -62.6379 5
      vertex -76.6137 -11.9224 5
      vertex -138.5 -34.4472 5
    endloop
  endfacet
  facet normal 0 0 1
    outer loop
      vertex -58.8138 -27.6757 5
      vertex -57.9984 -42.3932 5
      vertex -57.9154 -29.5094 5
    endloop
  endfacet
  facet normal 0 0 1
    outer loop
      vertex -59.654 -25.8146 5
      vertex -57.9984 -42.3932 5
      vertex -58.8138 -27.6757 5
    endloop
  endfacet
  facet normal 0 0 1
    outer loop
      vertex -60.4355 -23.9281 5
      vertex -57.9984 -42.3932 5
      vertex -59.654 -25.8146 5
    endloop
  endfacet
  facet normal 0 0 1
    outer loop
      vertex -61.1572 -22.018 5
      vertex -57.9984 -42.3932 5
      vertex -60.4355 -23.9281 5
    endloop
  endfacet
  facet normal 0 0 1
    outer loop
      vertex -71.6792 -4.80554 5
      vertex -61.1572 -22.018 5
      vertex -61.8187 -20.0861 5
    endloop
  endfacet
  facet normal 0 0 1
    outer loop
      vertex -71.6792 -4.80554 5
      vertex -61.8187 -20.0861 5
      vertex -62.4191 -18.1344 5
    endloop
  endfacet
  facet normal 0 0 1
    outer loop
      vertex -71.6792 -4.80554 5
      vertex -62.4191 -18.1344 5
      vertex -62.9579 -16.1648 5
    endloop
  endfacet
  facet normal 0 0 1
    outer loop
      vertex -71.6792 -4.80554 5
      vertex -62.9579 -16.1648 5
      vertex -63.4346 -14.1793 5
    endloop
  endfacet
  facet normal 0 0 1
    outer loop
      vertex -71.6792 -4.80554 5
      vertex -63.4346 -14.1793 5
      vertex -63.8487 -12.1798 5
    endloop
  endfacet
  facet normal 0 0 1
    outer loop
      vertex -61.1572 -22.018 5
      vertex -71.6792 -4.80554 5
      vertex -57.9984 -42.3932 5
    endloop
  endfacet
  facet normal 0 0 1
    outer loop
      vertex -64.1997 -10.1682 5
      vertex -71.6792 -4.80554 5
      vertex -63.8487 -12.1798 5
    endloop
  endfacet
  facet normal 0 0 1
    outer loop
      vertex -64.4875 -8.14666 5
      vertex -71.6792 -4.80554 5
      vertex -64.1997 -10.1682 5
    endloop
  endfacet
  facet normal 0 0 1
    outer loop
      vertex -64.7115 -6.11704 5
      vertex -71.6792 -4.80554 5
      vertex -64.4875 -8.14666 5
    endloop
  endfacet
  facet normal 0 0 1
    outer loop
      vertex -64.8717 -4.08138 5
      vertex -71.6792 -4.80554 5
      vertex -64.7115 -6.11704 5
    endloop
  endfacet
  facet normal 0 0 1
    outer loop
      vertex -64.9679 -2.0417 5
      vertex -71.6792 -4.80554 5
      vertex -64.8717 -4.08138 5
    endloop
  endfacet
  facet normal 0 0 1
    outer loop
      vertex -65 0 5
      vertex -71.6792 -4.80554 5
      vertex -64.9679 -2.0417 5
    endloop
  endfacet
  facet normal -0 0 1
    outer loop
      vertex -153 0 5
      vertex -71.6792 -4.80554 5
      vertex -65 0 5
    endloop
  endfacet
  facet normal 0 0 1
    outer loop
      vertex -146.855 -32.1671 5
      vertex -148.193 -38.0496 5
      vertex -146.925 -42.6856 5
    endloop
  endfacet
  facet normal 0 0 1
    outer loop
      vertex -146.855 -32.1671 5
      vertex -149.315 -33.3759 5
      vertex -148.193 -38.0496 5
    endloop
  endfacet
  facet normal 0 0 1
    outer loop
      vertex -146.855 -32.1671 5
      vertex -150.29 -28.6693 5
      vertex -149.315 -33.3759 5
    endloop
  endfacet
  facet normal 0 0 1
    outer loop
      vertex -71.6792 -4.80554 5
      vertex -152.321 -14.3986 5
      vertex -146.855 -32.1671 5
    endloop
  endfacet
  facet normal 0 0 1
    outer loop
      vertex -146.855 -32.1671 5
      vertex -151.116 -23.9345 5
      vertex -150.29 -28.6693 5
    endloop
  endfacet
  facet normal 0 0 1
    outer loop
      vertex -146.855 -32.1671 5
      vertex -151.794 -19.176 5
      vertex -151.116 -23.9345 5
    endloop
  endfacet
  facet normal 0 0 1
    outer loop
      vertex -146.855 -32.1671 5
      vertex -152.321 -14.3986 5
      vertex -151.794 -19.176 5
    endloop
  endfacet
  facet normal 0 0 1
    outer loop
      vertex -71.6792 -4.80554 5
      vertex -152.698 -9.60695 5
      vertex -152.321 -14.3986 5
    endloop
  endfacet
  facet normal 0 0 1
    outer loop
      vertex -71.6792 -4.80554 5
      vertex -152.924 -4.80585 5
      vertex -152.698 -9.60695 5
    endloop
  endfacet
  facet normal 0 0 1
    outer loop
      vertex -71.6792 -4.80554 5
      vertex -153 0 5
      vertex -152.924 -4.80585 5
    endloop
  endfacet
  facet normal 0 0 1
    outer loop
      vertex -57.9984 -42.3932 5
      vertex -56.9599 -31.314 5
      vertex -57.9154 -29.5094 5
    endloop
  endfacet
  facet normal 0 0 1
    outer loop
      vertex -57.9984 -42.3932 5
      vertex -55.9482 -33.0877 5
      vertex -56.9599 -31.314 5
    endloop
  endfacet
  facet normal 0 0 1
    outer loop
      vertex -57.9984 -42.3932 5
      vertex -54.8813 -34.8287 5
      vertex -55.9482 -33.0877 5
    endloop
  endfacet
  facet normal 0 0 1
    outer loop
      vertex -57.9984 -42.3932 5
      vertex -53.7602 -36.5354 5
      vertex -54.8813 -34.8287 5
    endloop
  endfacet
  facet normal 0 0 1
    outer loop
      vertex -57.9984 -42.3932 5
      vertex -52.5861 -38.206 5
      vertex -53.7602 -36.5354 5
    endloop
  endfacet
  facet normal 0 0 1
    outer loop
      vertex -57.9984 -42.3932 5
      vertex -51.3601 -39.839 5
      vertex -52.5861 -38.206 5
    endloop
  endfacet
  facet normal 0 0 1
    outer loop
      vertex -57.9984 -42.3932 5
      vertex -50.0834 -41.4326 5
      vertex -51.3601 -39.839 5
    endloop
  endfacet
  facet normal 0 0 1
    outer loop
      vertex -57.9984 -42.3932 5
      vertex -49.7886 -41.7776 5
      vertex -50.0834 -41.4326 5
    endloop
  endfacet
  facet normal -0 0 1
    outer loop
      vertex -57.9984 -42.3932 5
      vertex -117.195 -98.3381 5
      vertex -49.7886 -41.7776 5
    endloop
  endfacet
  facet normal 0 0 1
    outer loop
      vertex -57.9984 -42.3932 5
      vertex -117.889 -97.5259 5
      vertex -117.195 -98.3381 5
    endloop
  endfacet
  facet normal 0 0 1
    outer loop
      vertex -57.9984 -42.3932 5
      vertex -120.894 -93.7748 5
      vertex -117.889 -97.5259 5
    endloop
  endfacet
  facet normal 0 0 1
    outer loop
      vertex -57.9984 -42.3932 5
      vertex -123.78 -89.9311 5
      vertex -120.894 -93.7748 5
    endloop
  endfacet
  facet normal 0 0 1
    outer loop
      vertex -57.9984 -42.3932 5
      vertex -126.543 -85.9988 5
      vertex -123.78 -89.9311 5
    endloop
  endfacet
  facet normal -0 0 1
    outer loop
      vertex -133.174 -69.7549 5
      vertex -126.543 -85.9988 5
      vertex -57.9984 -42.3932 5
    endloop
  endfacet
  facet normal 0 0 1
    outer loop
      vertex -126.543 -85.9988 5
      vertex -133.174 -69.7549 5
      vertex -129.182 -81.9815 5
    endloop
  endfacet
  facet normal 0 0 1
    outer loop
      vertex -129.182 -81.9815 5
      vertex -133.174 -69.7549 5
      vertex -131.694 -77.8833 5
    endloop
  endfacet
  facet normal 0 0 1
    outer loop
      vertex -133.174 -69.7549 5
      vertex -134.075 -73.7083 5
      vertex -131.694 -77.8833 5
    endloop
  endfacet
  facet normal 0 0 1
    outer loop
      vertex -133.174 -69.7549 5
      vertex -136.324 -69.4605 5
      vertex -134.075 -73.7083 5
    endloop
  endfacet
  facet normal 0 0 1
    outer loop
      vertex -133.174 -69.7549 5
      vertex -138.439 -65.1442 5
      vertex -136.324 -69.4605 5
    endloop
  endfacet
  facet normal 0 0 1
    outer loop
      vertex -133.174 -69.7549 5
      vertex -140.416 -60.7636 5
      vertex -138.439 -65.1442 5
    endloop
  endfacet
  facet normal 0 0 1
    outer loop
      vertex -133.174 -69.7549 5
      vertex -142.256 -56.3231 5
      vertex -140.416 -60.7636 5
    endloop
  endfacet
  facet normal 0 0 1
    outer loop
      vertex -133.174 -69.7549 5
      vertex -143.955 -51.8269 5
      vertex -142.256 -56.3231 5
    endloop
  endfacet
  facet normal 0 0 1
    outer loop
      vertex -146.855 -32.1671 5
      vertex -143.955 -51.8269 5
      vertex -133.174 -69.7549 5
    endloop
  endfacet
  facet normal 0 0 1
    outer loop
      vertex -143.955 -51.8269 5
      vertex -146.855 -32.1671 5
      vertex -145.512 -47.2796 5
    endloop
  endfacet
  facet normal 0 0 1
    outer loop
      vertex -145.512 -47.2796 5
      vertex -146.855 -32.1671 5
      vertex -146.925 -42.6856 5
    endloop
  endfacet
  facet normal -0.780431 -0.625242 0
    outer loop
      vertex -117.889 -97.5259 0
      vertex -120.894 -93.7748 5
      vertex -120.894 -93.7748 0
    endloop
  endfacet
  facet normal -0.780431 -0.625242 0
    outer loop
      vertex -120.894 -93.7748 5
      vertex -117.889 -97.5259 0
      vertex -117.889 -97.5259 5
    endloop
  endfacet
  facet normal -0.868631 -0.495459 0
    outer loop
      vertex -131.694 -77.8833 0
      vertex -134.075 -73.7083 5
      vertex -134.075 -73.7083 0
    endloop
  endfacet
  facet normal -0.868631 -0.495459 0
    outer loop
      vertex -134.075 -73.7083 5
      vertex -131.694 -77.8833 0
      vertex -131.694 -77.8833 5
    endloop
  endfacet
  facet normal -0.964557 -0.263874 0
    outer loop
      vertex -146.925 -42.6856 0
      vertex -148.193 -38.0496 5
      vertex -148.193 -38.0496 0
    endloop
  endfacet
  facet normal -0.964557 -0.263874 0
    outer loop
      vertex -148.193 -38.0496 5
      vertex -146.925 -42.6856 0
      vertex -146.925 -42.6856 5
    endloop
  endfacet
  facet normal -0.955793 -0.29404 0
    outer loop
      vertex -145.512 -47.2796 0
      vertex -146.925 -42.6856 5
      vertex -146.925 -42.6856 0
    endloop
  endfacet
  facet normal -0.955793 -0.29404 0
    outer loop
      vertex -146.925 -42.6856 5
      vertex -145.512 -47.2796 0
      vertex -145.512 -47.2796 5
    endloop
  endfacet
  facet normal -0.985109 -0.17193 0
    outer loop
      vertex -150.29 -28.6693 0
      vertex -151.116 -23.9345 5
      vertex -151.116 -23.9345 0
    endloop
  endfacet
  facet normal -0.985109 -0.17193 0
    outer loop
      vertex -151.116 -23.9345 5
      vertex -150.29 -28.6693 0
      vertex -150.29 -28.6693 5
    endloop
  endfacet
  facet normal -0.999877 -0.0157082 0
    outer loop
      vertex -152.924 -4.80585 0
      vertex -153 0 5
      vertex -153 0 0
    endloop
  endfacet
  facet normal -0.999877 -0.0157082 0
    outer loop
      vertex -153 0 5
      vertex -152.924 -4.80585 0
      vertex -152.924 -4.80585 5
    endloop
  endfacet
  facet normal -0.81815 -0.575005 0
    outer loop
      vertex -123.78 -89.9311 0
      vertex -126.543 -85.9988 5
      vertex -126.543 -85.9988 0
    endloop
  endfacet
  facet normal -0.81815 -0.575005 0
    outer loop
      vertex -126.543 -85.9988 5
      vertex -123.78 -89.9311 0
      vertex -123.78 -89.9311 5
    endloop
  endfacet
  facet normal -0.799684 -0.600421 0
    outer loop
      vertex -120.894 -93.7748 0
      vertex -123.78 -89.9311 5
      vertex -123.78 -89.9311 0
    endloop
  endfacet
  facet normal -0.799684 -0.600421 0
    outer loop
      vertex -123.78 -89.9311 5
      vertex -120.894 -93.7748 0
      vertex -120.894 -93.7748 5
    endloop
  endfacet
  facet normal -0.760406 -0.649448 0
    outer loop
      vertex -117.195 -98.3381 0
      vertex -117.889 -97.5259 5
      vertex -117.889 -97.5259 0
    endloop
  endfacet
  facet normal -0.760406 -0.649448 0
    outer loop
      vertex -117.889 -97.5259 5
      vertex -117.195 -98.3381 0
      vertex -117.195 -98.3381 5
    endloop
  endfacet
  facet normal -0.883765 -0.467931 0
    outer loop
      vertex -134.075 -73.7083 0
      vertex -136.324 -69.4605 5
      vertex -136.324 -69.4605 0
    endloop
  endfacet
  facet normal -0.883765 -0.467931 0
    outer loop
      vertex -136.324 -69.4605 5
      vertex -134.075 -73.7083 0
      vertex -134.075 -73.7083 5
    endloop
  endfacet
  facet normal -0.898028 -0.439938 0
    outer loop
      vertex -136.324 -69.4605 0
      vertex -138.439 -65.1442 5
      vertex -138.439 -65.1442 0
    endloop
  endfacet
  facet normal -0.898028 -0.439938 0
    outer loop
      vertex -138.439 -65.1442 5
      vertex -136.324 -69.4605 0
      vertex -136.324 -69.4605 5
    endloop
  endfacet
  facet normal -0.85264 -0.522498 0
    outer loop
      vertex -129.182 -81.9815 0
      vertex -131.694 -77.8833 5
      vertex -131.694 -77.8833 0
    endloop
  endfacet
  facet normal -0.85264 -0.522498 0
    outer loop
      vertex -131.694 -77.8833 5
      vertex -129.182 -81.9815 0
      vertex -129.182 -81.9815 5
    endloop
  endfacet
  facet normal -0.835807 -0.549023 0
    outer loop
      vertex -126.543 -85.9988 0
      vertex -129.182 -81.9815 5
      vertex -129.182 -81.9815 0
    endloop
  endfacet
  facet normal -0.835807 -0.549023 0
    outer loop
      vertex -129.182 -81.9815 5
      vertex -126.543 -85.9988 0
      vertex -126.543 -85.9988 5
    endloop
  endfacet
  facet normal -0.935444 -0.353476 0
    outer loop
      vertex -142.256 -56.3231 0
      vertex -143.955 -51.8269 5
      vertex -143.955 -51.8269 0
    endloop
  endfacet
  facet normal -0.935444 -0.353476 0
    outer loop
      vertex -143.955 -51.8269 5
      vertex -142.256 -56.3231 0
      vertex -142.256 -56.3231 5
    endloop
  endfacet
  facet normal -0.979223 -0.202788 0
    outer loop
      vertex -149.315 -33.3759 0
      vertex -150.29 -28.6693 5
      vertex -150.29 -28.6693 0
    endloop
  endfacet
  facet normal -0.979223 -0.202788 0
    outer loop
      vertex -150.29 -28.6693 5
      vertex -149.315 -33.3759 0
      vertex -149.315 -33.3759 5
    endloop
  endfacet
  facet normal -0.97237 -0.233445 0
    outer loop
      vertex -148.193 -38.0496 0
      vertex -149.315 -33.3759 5
      vertex -149.315 -33.3759 0
    endloop
  endfacet
  facet normal -0.97237 -0.233445 0
    outer loop
      vertex -149.315 -33.3759 5
      vertex -148.193 -38.0496 0
      vertex -148.193 -38.0496 5
    endloop
  endfacet
  facet normal -0.946086 -0.323917 0
    outer loop
      vertex -143.955 -51.8269 0
      vertex -145.512 -47.2796 5
      vertex -145.512 -47.2796 0
    endloop
  endfacet
  facet normal -0.946086 -0.323917 0
    outer loop
      vertex -145.512 -47.2796 5
      vertex -143.955 -51.8269 0
      vertex -143.955 -51.8269 5
    endloop
  endfacet
  facet normal -0.993961 -0.109735 0
    outer loop
      vertex -151.794 -19.176 0
      vertex -152.321 -14.3986 5
      vertex -152.321 -14.3986 0
    endloop
  endfacet
  facet normal -0.993961 -0.109735 0
    outer loop
      vertex -152.321 -14.3986 5
      vertex -151.794 -19.176 0
      vertex -151.794 -19.176 5
    endloop
  endfacet
  facet normal -0.911403 -0.411514 0
    outer loop
      vertex -138.439 -65.1442 0
      vertex -140.416 -60.7636 5
      vertex -140.416 -60.7636 0
    endloop
  endfacet
  facet normal -0.911403 -0.411514 0
    outer loop
      vertex -140.416 -60.7636 5
      vertex -138.439 -65.1442 0
      vertex -138.439 -65.1442 5
    endloop
  endfacet
  facet normal -0.990024 -0.140901 0
    outer loop
      vertex -151.116 -23.9345 0
      vertex -151.794 -19.176 5
      vertex -151.794 -19.176 0
    endloop
  endfacet
  facet normal -0.990024 -0.140901 0
    outer loop
      vertex -151.794 -19.176 5
      vertex -151.116 -23.9345 0
      vertex -151.116 -23.9345 5
    endloop
  endfacet
  facet normal -0.996917 -0.0784584 0
    outer loop
      vertex -152.321 -14.3986 0
      vertex -152.698 -9.60695 5
      vertex -152.698 -9.60695 0
    endloop
  endfacet
  facet normal -0.996917 -0.0784584 0
    outer loop
      vertex -152.698 -9.60695 5
      vertex -152.321 -14.3986 0
      vertex -152.321 -14.3986 5
    endloop
  endfacet
  facet normal 0.935444 0.353475 0
    outer loop
      vertex -60.4355 -23.9281 5
      vertex -61.1572 -22.018 0
      vertex -61.1572 -22.018 5
    endloop
  endfacet
  facet normal 0.935444 0.353475 0
    outer loop
      vertex -61.1572 -22.018 0
      vertex -60.4355 -23.9281 5
      vertex -60.4355 -23.9281 0
    endloop
  endfacet
  facet normal 0.993961 0.109732 0
    outer loop
      vertex -64.4875 -8.14666 5
      vertex -64.7115 -6.11704 0
      vertex -64.7115 -6.11704 5
    endloop
  endfacet
  facet normal 0.993961 0.109732 0
    outer loop
      vertex -64.7115 -6.11704 0
      vertex -64.4875 -8.14666 5
      vertex -64.4875 -8.14666 0
    endloop
  endfacet
  facet normal 0.955793 0.294041 0
    outer loop
      vertex -61.8187 -20.0861 5
      vertex -62.4191 -18.1344 0
      vertex -62.4191 -18.1344 5
    endloop
  endfacet
  facet normal 0.955793 0.294041 0
    outer loop
      vertex -62.4191 -18.1344 0
      vertex -61.8187 -20.0861 5
      vertex -61.8187 -20.0861 0
    endloop
  endfacet
  facet normal 0.923879 0.382684 0
    outer loop
      vertex -59.654 -25.8146 5
      vertex -60.4355 -23.9281 0
      vertex -60.4355 -23.9281 5
    endloop
  endfacet
  facet normal 0.923879 0.382684 0
    outer loop
      vertex -60.4355 -23.9281 0
      vertex -59.654 -25.8146 5
      vertex -59.654 -25.8146 0
    endloop
  endfacet
  facet normal 0.78043 0.625243 0
    outer loop
      vertex -50.0834 -41.4326 5
      vertex -51.3601 -39.839 0
      vertex -51.3601 -39.839 5
    endloop
  endfacet
  facet normal 0.78043 0.625243 0
    outer loop
      vertex -51.3601 -39.839 0
      vertex -50.0834 -41.4326 5
      vertex -50.0834 -41.4326 0
    endloop
  endfacet
  facet normal 0.835808 0.549022 0
    outer loop
      vertex -53.7602 -36.5354 5
      vertex -54.8813 -34.8287 0
      vertex -54.8813 -34.8287 5
    endloop
  endfacet
  facet normal 0.835808 0.549022 0
    outer loop
      vertex -54.8813 -34.8287 0
      vertex -53.7602 -36.5354 5
      vertex -53.7602 -36.5354 0
    endloop
  endfacet
  facet normal 0.818149 0.575006 0
    outer loop
      vertex -52.5861 -38.206 5
      vertex -53.7602 -36.5354 0
      vertex -53.7602 -36.5354 5
    endloop
  endfacet
  facet normal 0.818149 0.575006 0
    outer loop
      vertex -53.7602 -36.5354 0
      vertex -52.5861 -38.206 5
      vertex -52.5861 -38.206 0
    endloop
  endfacet
  facet normal 0.979223 0.202787 0
    outer loop
      vertex -63.4346 -14.1793 5
      vertex -63.8487 -12.1798 0
      vertex -63.8487 -12.1798 5
    endloop
  endfacet
  facet normal 0.979223 0.202787 0
    outer loop
      vertex -63.8487 -12.1798 0
      vertex -63.4346 -14.1793 5
      vertex -63.4346 -14.1793 0
    endloop
  endfacet
  facet normal 0.97237 0.233446 0
    outer loop
      vertex -62.9579 -16.1648 5
      vertex -63.4346 -14.1793 0
      vertex -63.4346 -14.1793 5
    endloop
  endfacet
  facet normal 0.97237 0.233446 0
    outer loop
      vertex -63.4346 -14.1793 0
      vertex -62.9579 -16.1648 5
      vertex -62.9579 -16.1648 0
    endloop
  endfacet
  facet normal 0.98511 0.171927 0
    outer loop
      vertex -63.8487 -12.1798 5
      vertex -64.1997 -10.1682 0
      vertex -64.1997 -10.1682 5
    endloop
  endfacet
  facet normal 0.98511 0.171927 0
    outer loop
      vertex -64.1997 -10.1682 0
      vertex -63.8487 -12.1798 5
      vertex -63.8487 -12.1798 0
    endloop
  endfacet
  facet normal 0.999877 0.0157075 0
    outer loop
      vertex -64.9679 -2.0417 5
      vertex -65 0 0
      vertex -65 0 5
    endloop
  endfacet
  facet normal 0.999877 0.0157075 0
    outer loop
      vertex -65 0 0
      vertex -64.9679 -2.0417 5
      vertex -64.9679 -2.0417 0
    endloop
  endfacet
  facet normal 0.898028 0.439939 0
    outer loop
      vertex -57.9154 -29.5094 5
      vertex -58.8138 -27.6757 0
      vertex -58.8138 -27.6757 5
    endloop
  endfacet
  facet normal 0.898028 0.439939 0
    outer loop
      vertex -58.8138 -27.6757 0
      vertex -57.9154 -29.5094 5
      vertex -57.9154 -29.5094 0
    endloop
  endfacet
  facet normal 0.760408 0.649446 0
    outer loop
      vertex -49.7886 -41.7776 5
      vertex -50.0834 -41.4326 0
      vertex -50.0834 -41.4326 5
    endloop
  endfacet
  facet normal 0.760408 0.649446 0
    outer loop
      vertex -50.0834 -41.4326 0
      vertex -49.7886 -41.7776 5
      vertex -49.7886 -41.7776 0
    endloop
  endfacet
  facet normal 0.911404 0.411514 0
    outer loop
      vertex -58.8138 -27.6757 5
      vertex -59.654 -25.8146 0
      vertex -59.654 -25.8146 5
    endloop
  endfacet
  facet normal 0.911404 0.411514 0
    outer loop
      vertex -59.654 -25.8146 0
      vertex -58.8138 -27.6757 5
      vertex -58.8138 -27.6757 0
    endloop
  endfacet
  facet normal 0.883765 0.46793 0
    outer loop
      vertex -56.9599 -31.314 5
      vertex -57.9154 -29.5094 0
      vertex -57.9154 -29.5094 5
    endloop
  endfacet
  facet normal 0.883765 0.46793 0
    outer loop
      vertex -57.9154 -29.5094 0
      vertex -56.9599 -31.314 5
      vertex -56.9599 -31.314 0
    endloop
  endfacet
  facet normal 0.85264 0.522499 0
    outer loop
      vertex -54.8813 -34.8287 5
      vertex -55.9482 -33.0877 0
      vertex -55.9482 -33.0877 5
    endloop
  endfacet
  facet normal 0.85264 0.522499 0
    outer loop
      vertex -55.9482 -33.0877 0
      vertex -54.8813 -34.8287 5
      vertex -54.8813 -34.8287 0
    endloop
  endfacet
  facet normal 0.799685 0.60042 0
    outer loop
      vertex -51.3601 -39.839 5
      vertex -52.5861 -38.206 0
      vertex -52.5861 -38.206 5
    endloop
  endfacet
  facet normal 0.799685 0.60042 0
    outer loop
      vertex -52.5861 -38.206 0
      vertex -51.3601 -39.839 5
      vertex -51.3601 -39.839 0
    endloop
  endfacet
  facet normal 0.946085 0.323917 0
    outer loop
      vertex -61.1572 -22.018 5
      vertex -61.8187 -20.0861 0
      vertex -61.8187 -20.0861 5
    endloop
  endfacet
  facet normal 0.946085 0.323917 0
    outer loop
      vertex -61.8187 -20.0861 0
      vertex -61.1572 -22.018 5
      vertex -61.1572 -22.018 0
    endloop
  endfacet
  facet normal 0.990023 0.140904 0
    outer loop
      vertex -64.1997 -10.1682 5
      vertex -64.4875 -8.14666 0
      vertex -64.4875 -8.14666 5
    endloop
  endfacet
  facet normal 0.990023 0.140904 0
    outer loop
      vertex -64.4875 -8.14666 0
      vertex -64.1997 -10.1682 5
      vertex -64.1997 -10.1682 0
    endloop
  endfacet
  facet normal 0.99889 0.0471076 0
    outer loop
      vertex -64.8717 -4.08138 5
      vertex -64.9679 -2.0417 0
      vertex -64.9679 -2.0417 5
    endloop
  endfacet
  facet normal 0.99889 0.0471076 0
    outer loop
      vertex -64.9679 -2.0417 0
      vertex -64.8717 -4.08138 5
      vertex -64.8717 -4.08138 0
    endloop
  endfacet
  facet normal 0.996917 0.0784591 0
    outer loop
      vertex -64.7115 -6.11704 5
      vertex -64.8717 -4.08138 0
      vertex -64.8717 -4.08138 5
    endloop
  endfacet
  facet normal 0.996917 0.0784591 0
    outer loop
      vertex -64.8717 -4.08138 0
      vertex -64.7115 -6.11704 5
      vertex -64.7115 -6.11704 0
    endloop
  endfacet
  facet normal 0.868631 0.495459 0
    outer loop
      vertex -55.9482 -33.0877 5
      vertex -56.9599 -31.314 0
      vertex -56.9599 -31.314 5
    endloop
  endfacet
  facet normal 0.868631 0.495459 0
    outer loop
      vertex -56.9599 -31.314 0
      vertex -55.9482 -33.0877 5
      vertex -55.9482 -33.0877 0
    endloop
  endfacet
  facet normal 0.964558 0.263872 0
    outer loop
      vertex -62.4191 -18.1344 5
      vertex -62.9579 -16.1648 0
      vertex -62.9579 -16.1648 5
    endloop
  endfacet
  facet normal 0.964558 0.263872 0
    outer loop
      vertex -62.9579 -16.1648 0
      vertex -62.4191 -18.1344 5
      vertex -62.4191 -18.1344 0
    endloop
  endfacet
  facet normal 0 1 -0
    outer loop
      vertex -65 0 0
      vertex -153 0 5
      vertex -65 0 5
    endloop
  endfacet
  facet normal 0 1 0
    outer loop
      vertex -153 0 5
      vertex -65 0 0
      vertex -153 0 0
    endloop
  endfacet
  facet normal 0.642788 -0.766044 0
    outer loop
      vertex -117.195 -98.3381 0
      vertex -49.7886 -41.7776 5
      vertex -117.195 -98.3381 5
    endloop
  endfacet
  facet normal 0.642788 -0.766044 0
    outer loop
      vertex -49.7886 -41.7776 5
      vertex -117.195 -98.3381 0
      vertex -49.7886 -41.7776 0
    endloop
  endfacet
  facet normal -0.34202 0.939693 0
    outer loop
      vertex -109.267 -18.4863 45
      vertex -83.0223 -8.93409 10
      vertex -109.267 -18.4863 37.9289
    endloop
  endfacet
  facet normal -0.34202 0.939693 -1.33861e-07
    outer loop
      vertex -83.0223 -8.93409 10
      vertex -71.6792 -4.80554 5
      vertex -135.512 -28.0386 10
    endloop
  endfacet
  facet normal -0.34202 0.939693 1.04077e-08
    outer loop
      vertex -71.6792 -4.80554 5
      vertex -83.0223 -8.93409 10
      vertex -109.267 -18.4863 45
    endloop
  endfacet
  facet normal -0.34202 0.939693 0
    outer loop
      vertex -135.512 -28.0386 10
      vertex -109.267 -18.4863 45
      vertex -109.267 -18.4863 37.9289
    endloop
  endfacet
  facet normal -0.34202 0.939693 -1.66016e-07
    outer loop
      vertex -135.512 -28.0386 10
      vertex -146.855 -32.1671 5
      vertex -109.267 -18.4863 45
    endloop
  endfacet
  facet normal -0.34202 0.939693 1.69559e-07
    outer loop
      vertex -146.855 -32.1671 5
      vertex -135.512 -28.0386 10
      vertex -71.6792 -4.80554 5
    endloop
  endfacet
  facet normal -0.664463 -0.241845 0.707107
    outer loop
      vertex -109.267 -18.4863 45
      vertex -101.995 -53.0857 40
      vertex -95.5861 -56.074 45
    endloop
  endfacet
  facet normal -0.664463 -0.241845 0.707107
    outer loop
      vertex -109.267 -18.4863 45
      vertex -112.255 -24.8949 40
      vertex -101.995 -53.0857 40
    endloop
  endfacet
  facet normal -0.664463 -0.241844 0.707107
    outer loop
      vertex -109.267 -18.4863 45
      vertex -140.446 -35.1555 10
      vertex -112.255 -24.8949 40
    endloop
  endfacet
  facet normal -0.664463 -0.241844 0.707107
    outer loop
      vertex -140.446 -35.1555 10
      vertex -109.267 -18.4863 45
      vertex -146.855 -32.1671 5
    endloop
  endfacet
  facet normal -0.664463 -0.241845 0.707107
    outer loop
      vertex -130.185 -63.3463 10
      vertex -95.5861 -56.074 45
      vertex -101.995 -53.0857 40
    endloop
  endfacet
  facet normal -0.664463 -0.241845 0.707107
    outer loop
      vertex -130.185 -63.3463 10
      vertex -133.174 -69.7549 5
      vertex -95.5861 -56.074 45
    endloop
  endfacet
  facet normal -0.664465 -0.241846 0.707105
    outer loop
      vertex -137.893 -52.5818 6.43934
      vertex -130.185 -63.3463 10
      vertex -136.896 -52.2191 7.5
    endloop
  endfacet
  facet normal -0.664462 -0.241844 0.707107
    outer loop
      vertex -130.185 -63.3463 10
      vertex -138.606 -47.5206 7.5
      vertex -136.896 -52.2191 7.5
    endloop
  endfacet
  facet normal -0.664465 -0.241845 0.707105
    outer loop
      vertex -138.606 -47.5206 7.5
      vertex -140.446 -35.1555 10
      vertex -139.603 -47.8834 6.43934
    endloop
  endfacet
  facet normal -0.664463 -0.241845 0.707106
    outer loop
      vertex -140.446 -35.1555 10
      vertex -138.606 -47.5206 7.5
      vertex -130.185 -63.3463 10
    endloop
  endfacet
  facet normal -0.664463 -0.241845 0.707106
    outer loop
      vertex -130.185 -63.3463 10
      vertex -137.893 -52.5818 6.43934
      vertex -133.174 -69.7549 5
    endloop
  endfacet
  facet normal -0.664465 -0.241845 0.707105
    outer loop
      vertex -139.603 -47.8834 6.43934
      vertex -133.174 -69.7549 5
      vertex -137.893 -52.5818 6.43934
    endloop
  endfacet
  facet normal -0.664463 -0.241845 0.707107
    outer loop
      vertex -139.603 -47.8834 6.43934
      vertex -146.855 -32.1671 5
      vertex -133.174 -69.7549 5
    endloop
  endfacet
  facet normal -0.664464 -0.241845 0.707106
    outer loop
      vertex -146.855 -32.1671 5
      vertex -139.603 -47.8834 6.43934
      vertex -140.446 -35.1555 10
    endloop
  endfacet
  facet normal 0.34202 -0.939693 0
    outer loop
      vertex -95.5861 -56.074 45
      vertex -121.831 -65.6263 10
      vertex -95.5861 -56.074 37.9289
    endloop
  endfacet
  facet normal 0.34202 -0.939693 -2.23477e-07
    outer loop
      vertex -121.831 -65.6263 10
      vertex -133.174 -69.7549 5
      vertex -69.3415 -46.5218 10
    endloop
  endfacet
  facet normal 0.34202 -0.939693 5.46528e-08
    outer loop
      vertex -133.174 -69.7549 5
      vertex -121.831 -65.6263 10
      vertex -95.5861 -56.074 45
    endloop
  endfacet
  facet normal 0.34202 -0.939693 0
    outer loop
      vertex -69.3415 -46.5218 10
      vertex -95.5861 -56.074 45
      vertex -95.5861 -56.074 37.9289
    endloop
  endfacet
  facet normal 0.34202 -0.939693 -2.94847e-07
    outer loop
      vertex -69.3415 -46.5218 10
      vertex -57.9984 -42.3932 5
      vertex -95.5861 -56.074 45
    endloop
  endfacet
  facet normal 0.34202 -0.939693 3.77604e-07
    outer loop
      vertex -57.9984 -42.3932 5
      vertex -69.3415 -46.5218 10
      vertex -133.174 -69.7549 5
    endloop
  endfacet
  facet normal 0.664463 0.241845 0.707107
    outer loop
      vertex -57.9984 -42.3932 5
      vertex -65.4222 -26.2048 6.43934
      vertex -64.407 -39.4049 10
    endloop
  endfacet
  facet normal 0.664467 0.241847 0.707102
    outer loop
      vertex -57.9984 -42.3932 5
      vertex -67.1323 -21.5063 6.43934
      vertex -65.4222 -26.2048 6.43934
    endloop
  endfacet
  facet normal 0.664463 0.241845 0.707107
    outer loop
      vertex -74.6676 -11.2141 10
      vertex -67.1323 -21.5063 6.43934
      vertex -71.6792 -4.80554 5
    endloop
  endfacet
  facet normal 0.664462 0.241844 0.707108
    outer loop
      vertex -71.6792 -4.80554 5
      vertex -67.1323 -21.5063 6.43934
      vertex -57.9984 -42.3932 5
    endloop
  endfacet
  facet normal 0.664463 0.241845 0.707107
    outer loop
      vertex -92.5977 -49.6655 40
      vertex -57.9984 -42.3932 5
      vertex -64.407 -39.4049 10
    endloop
  endfacet
  facet normal 0.664463 0.241845 0.707107
    outer loop
      vertex -92.5977 -49.6655 40
      vertex -95.5861 -56.074 45
      vertex -57.9984 -42.3932 5
    endloop
  endfacet
  facet normal 0.664463 0.241845 0.707106
    outer loop
      vertex -102.858 -21.4747 40
      vertex -95.5861 -56.074 45
      vertex -92.5977 -49.6655 40
    endloop
  endfacet
  facet normal 0.664463 0.241845 0.707107
    outer loop
      vertex -95.5861 -56.074 45
      vertex -102.858 -21.4747 40
      vertex -109.267 -18.4863 45
    endloop
  endfacet
  facet normal 0.664463 0.241845 0.707107
    outer loop
      vertex -66.4189 -26.5676 7.5
      vertex -64.407 -39.4049 10
      vertex -65.4222 -26.2048 6.43934
    endloop
  endfacet
  facet normal 0.664461 0.241845 0.707109
    outer loop
      vertex -68.129 -21.8691 7.5
      vertex -64.407 -39.4049 10
      vertex -66.4189 -26.5676 7.5
    endloop
  endfacet
  facet normal 0.664463 0.241845 0.707106
    outer loop
      vertex -68.129 -21.8691 7.5
      vertex -74.6676 -11.2141 10
      vertex -64.407 -39.4049 10
    endloop
  endfacet
  facet normal 0.664463 0.241844 0.707107
    outer loop
      vertex -67.1323 -21.5063 6.43934
      vertex -74.6676 -11.2141 10
      vertex -68.129 -21.8691 7.5
    endloop
  endfacet
  facet normal 0.664463 0.241844 0.707107
    outer loop
      vertex -71.6792 -4.80554 5
      vertex -102.858 -21.4747 40
      vertex -74.6676 -11.2141 10
    endloop
  endfacet
  facet normal 0.664463 0.241844 0.707107
    outer loop
      vertex -102.858 -21.4747 40
      vertex -71.6792 -4.80554 5
      vertex -109.267 -18.4863 45
    endloop
  endfacet
  facet normal 0.664463 0.241844 -0.707107
    outer loop
      vertex -133.801 -32.7371 10
      vertex -109.267 -18.4863 37.9289
      vertex -107.557 -23.1848 37.9289
    endloop
  endfacet
  facet normal 0.664463 0.241844 -0.707107
    outer loop
      vertex -109.267 -18.4863 37.9289
      vertex -133.801 -32.7371 10
      vertex -135.512 -28.0386 10
    endloop
  endfacet
  facet normal 0.664463 0.241845 -0.707107
    outer loop
      vertex -121.831 -65.6263 10
      vertex -97.2962 -51.3756 37.9289
      vertex -95.5861 -56.074 37.9289
    endloop
  endfacet
  facet normal 0.664463 0.241844 -0.707107
    outer loop
      vertex -97.2962 -51.3756 37.9289
      vertex -121.831 -65.6263 10
      vertex -123.541 -60.9278 10
    endloop
  endfacet
  facet normal -0.664463 -0.241844 -0.707107
    outer loop
      vertex -107.557 -23.1848 37.9289
      vertex -83.0223 -8.93409 10
      vertex -81.3122 -13.6325 10
    endloop
  endfacet
  facet normal -0.664463 -0.241844 -0.707107
    outer loop
      vertex -83.0223 -8.93409 10
      vertex -107.557 -23.1848 37.9289
      vertex -109.267 -18.4863 37.9289
    endloop
  endfacet
  facet normal -0.664463 -0.241844 -0.707107
    outer loop
      vertex -95.5861 -56.074 37.9289
      vertex -71.0516 -41.8233 10
      vertex -69.3415 -46.5218 10
    endloop
  endfacet
  facet normal -0.664463 -0.241845 -0.707107
    outer loop
      vertex -71.0516 -41.8233 10
      vertex -95.5861 -56.074 37.9289
      vertex -97.2962 -51.3756 37.9289
    endloop
  endfacet
  facet normal 0 0 1
    outer loop
      vertex -83.0223 -8.93409 10
      vertex -133.801 -32.7371 10
      vertex -81.3122 -13.6325 10
    endloop
  endfacet
  facet normal 0 -0 1
    outer loop
      vertex -133.801 -32.7371 10
      vertex -83.0223 -8.93409 10
      vertex -135.512 -28.0386 10
    endloop
  endfacet
  facet normal 0 0 1
    outer loop
      vertex -71.0516 -41.8233 10
      vertex -121.831 -65.6263 10
      vertex -69.3415 -46.5218 10
    endloop
  endfacet
  facet normal 0 -0 1
    outer loop
      vertex -121.831 -65.6263 10
      vertex -71.0516 -41.8233 10
      vertex -123.541 -60.9278 10
    endloop
  endfacet
  facet normal 0 0 1
    outer loop
      vertex -133.801 -32.7371 10
      vertex -130.185 -63.3463 10
      vertex -123.541 -60.9278 10
    endloop
  endfacet
  facet normal 0 0 1
    outer loop
      vertex -130.185 -63.3463 10
      vertex -133.801 -32.7371 10
      vertex -140.446 -35.1555 10
    endloop
  endfacet
  facet normal 0 0 1
    outer loop
      vertex -74.6676 -11.2141 10
      vertex -71.0516 -41.8233 10
      vertex -64.407 -39.4049 10
    endloop
  endfacet
  facet normal 0 0 1
    outer loop
      vertex -71.0516 -41.8233 10
      vertex -74.6676 -11.2141 10
      vertex -81.3122 -13.6325 10
    endloop
  endfacet
  facet normal 0.34202 -0.939693 -1.03051e-06
    outer loop
      vertex -138.5 -34.4472 5
      vertex -81.3122 -13.6325 10
      vertex -133.801 -32.7371 10
    endloop
  endfacet
  facet normal 0.34202 -0.939693 -1.05095e-07
    outer loop
      vertex -81.3122 -13.6325 10
      vertex -138.5 -34.4472 5
      vertex -76.6137 -11.9224 5
    endloop
  endfacet
  facet normal 0.34202 -0.939693 4.32705e-07
    outer loop
      vertex -112.255 -24.8949 40
      vertex -107.557 -23.1848 37.9289
      vertex -102.858 -21.4747 40
    endloop
  endfacet
  facet normal 0.34202 -0.939693 5.8391e-07
    outer loop
      vertex -133.801 -32.7371 10
      vertex -112.255 -24.8949 40
      vertex -140.446 -35.1555 10
    endloop
  endfacet
  facet normal 0.34202 -0.939693 1.39218e-07
    outer loop
      vertex -112.255 -24.8949 40
      vertex -133.801 -32.7371 10
      vertex -107.557 -23.1848 37.9289
    endloop
  endfacet
  facet normal 0.34202 -0.939693 1.8032e-07
    outer loop
      vertex -81.3122 -13.6325 10
      vertex -102.858 -21.4747 40
      vertex -107.557 -23.1848 37.9289
    endloop
  endfacet
  facet normal 0.34202 -0.939693 1.35452e-07
    outer loop
      vertex -102.858 -21.4747 40
      vertex -81.3122 -13.6325 10
      vertex -74.6676 -11.2141 10
    endloop
  endfacet
  facet normal 0.664462 0.241845 -0.707107
    outer loop
      vertex -128.239 -62.6379 5
      vertex -133.801 -32.7371 10
      vertex -123.541 -60.9278 10
    endloop
  endfacet
  facet normal 0.664463 0.241845 -0.707107
    outer loop
      vertex -133.801 -32.7371 10
      vertex -128.239 -62.6379 5
      vertex -138.5 -34.4472 5
    endloop
  endfacet
  facet normal -0.34202 0.939693 -5.08633e-07
    outer loop
      vertex -66.3531 -40.1132 5
      vertex -123.541 -60.9278 10
      vertex -71.0516 -41.8233 10
    endloop
  endfacet
  facet normal -0.34202 0.939693 2.51162e-07
    outer loop
      vertex -123.541 -60.9278 10
      vertex -66.3531 -40.1132 5
      vertex -128.239 -62.6379 5
    endloop
  endfacet
  facet normal -0.34202 0.939693 8.65409e-07
    outer loop
      vertex -92.5977 -49.6655 40
      vertex -97.2962 -51.3756 37.9289
      vertex -101.995 -53.0857 40
    endloop
  endfacet
  facet normal -0.34202 0.939693 2.74629e-07
    outer loop
      vertex -71.0516 -41.8233 10
      vertex -92.5977 -49.6655 40
      vertex -64.407 -39.4049 10
    endloop
  endfacet
  facet normal -0.34202 0.939693 3.26625e-07
    outer loop
      vertex -92.5977 -49.6655 40
      vertex -71.0516 -41.8233 10
      vertex -97.2962 -51.3756 37.9289
    endloop
  endfacet
  facet normal -0.34202 0.939693 1.14255e-07
    outer loop
      vertex -123.541 -60.9278 10
      vertex -101.995 -53.0857 40
      vertex -97.2962 -51.3756 37.9289
    endloop
  endfacet
  facet normal -0.34202 0.939693 -1.3671e-07
    outer loop
      vertex -101.995 -53.0857 40
      vertex -123.541 -60.9278 10
      vertex -130.185 -63.3463 10
    endloop
  endfacet
  facet normal -0.664463 -0.241845 -0.707107
    outer loop
      vertex -71.0516 -41.8233 10
      vertex -76.6137 -11.9224 5
      vertex -66.3531 -40.1132 5
    endloop
  endfacet
  facet normal -0.664463 -0.241845 -0.707107
    outer loop
      vertex -76.6137 -11.9224 5
      vertex -71.0516 -41.8233 10
      vertex -81.3122 -13.6325 10
    endloop
  endfacet
  facet normal 0 0 -1
    outer loop
      vertex -101.995 -53.0857 40
      vertex -102.858 -21.4747 40
      vertex -92.5977 -49.6655 40
    endloop
  endfacet
  facet normal 0 -0 -1
    outer loop
      vertex -102.858 -21.4747 40
      vertex -101.995 -53.0857 40
      vertex -112.255 -24.8949 40
    endloop
  endfacet
  facet normal 0.34202 -0.939693 -1.27457e-06
    outer loop
      vertex -139.06 -53.0068 7.68198
      vertex -137.893 -52.5818 10.682
      vertex -141.651 -53.9499 10.682
    endloop
  endfacet
  facet normal 0.342021 -0.939692 0
    outer loop
      vertex -139.06 -53.0068 7.68198
      vertex -141.651 -53.9499 10.682
      vertex -141.651 -53.9499 7.68198
    endloop
  endfacet
  facet normal 0.342019 -0.939693 -8.35033e-07
    outer loop
      vertex -136.896 -52.2191 7.5
      vertex -137.893 -52.5818 10.682
      vertex -139.06 -53.0068 7.68198
    endloop
  endfacet
  facet normal 0.34202 -0.939693 -3.85177e-07
    outer loop
      vertex -137.893 -52.5818 10.682
      vertex -136.896 -52.2191 7.5
      vertex -135.899 -51.8563 8.56066
    endloop
  endfacet
  facet normal 0.342019 -0.939693 2.26052e-06
    outer loop
      vertex -136.896 -52.2191 7.5
      vertex -139.06 -53.0068 7.68198
      vertex -137.893 -52.5818 6.43934
    endloop
  endfacet
  facet normal -0.342019 0.939693 8.35033e-07
    outer loop
      vertex -139.603 -47.8834 10.682
      vertex -138.606 -47.5206 7.5
      vertex -140.77 -48.3084 7.68198
    endloop
  endfacet
  facet normal -0.342019 0.939693 -2.26052e-06
    outer loop
      vertex -140.77 -48.3084 7.68198
      vertex -138.606 -47.5206 7.5
      vertex -139.603 -47.8834 6.43934
    endloop
  endfacet
  facet normal -0.342024 0.939691 -8.44907e-07
    outer loop
      vertex -138.606 -47.5206 7.5
      vertex -139.603 -47.8834 10.682
      vertex -137.609 -47.1578 8.56066
    endloop
  endfacet
  facet normal -0.34202 0.939693 1.27457e-06
    outer loop
      vertex -139.603 -47.8834 10.682
      vertex -140.77 -48.3084 7.68198
      vertex -143.361 -49.2515 10.682
    endloop
  endfacet
  facet normal -0.342021 0.939692 0
    outer loop
      vertex -143.361 -49.2515 10.682
      vertex -140.77 -48.3084 7.68198
      vertex -143.361 -49.2515 7.68198
    endloop
  endfacet
  facet normal 0.664459 0.241845 -0.70711
    outer loop
      vertex -136.896 -52.2191 7.5
      vertex -137.609 -47.1578 8.56066
      vertex -135.899 -51.8563 8.56066
    endloop
  endfacet
  facet normal 0.664465 0.241845 -0.707105
    outer loop
      vertex -137.609 -47.1578 8.56066
      vertex -136.896 -52.2191 7.5
      vertex -138.606 -47.5206 7.5
    endloop
  endfacet
  facet normal 0.664462 0.241846 0.707108
    outer loop
      vertex -137.609 -47.1578 8.56066
      vertex -137.893 -52.5818 10.682
      vertex -135.899 -51.8563 8.56066
    endloop
  endfacet
  facet normal 0.664465 0.241845 0.707105
    outer loop
      vertex -137.893 -52.5818 10.682
      vertex -137.609 -47.1578 8.56066
      vertex -139.603 -47.8834 10.682
    endloop
  endfacet
  facet normal -0.664461 -0.241844 -0.707109
    outer loop
      vertex -139.06 -53.0068 7.68198
      vertex -139.603 -47.8834 6.43934
      vertex -137.893 -52.5818 6.43934
    endloop
  endfacet
  facet normal -0.664461 -0.241844 -0.707109
    outer loop
      vertex -139.603 -47.8834 6.43934
      vertex -139.06 -53.0068 7.68198
      vertex -140.77 -48.3084 7.68198
    endloop
  endfacet
  facet normal -0.939693 -0.34202 0
    outer loop
      vertex -141.651 -53.9499 7.68198
      vertex -143.361 -49.2515 10.682
      vertex -143.361 -49.2515 7.68198
    endloop
  endfacet
  facet normal -0.939693 -0.34202 0
    outer loop
      vertex -143.361 -49.2515 10.682
      vertex -141.651 -53.9499 7.68198
      vertex -141.651 -53.9499 10.682
    endloop
  endfacet
  facet normal 0 0 -1
    outer loop
      vertex -141.651 -53.9499 7.68198
      vertex -140.77 -48.3084 7.68198
      vertex -139.06 -53.0068 7.68198
    endloop
  endfacet
  facet normal 0 0 -1
    outer loop
      vertex -140.77 -48.3084 7.68198
      vertex -141.651 -53.9499 7.68198
      vertex -143.361 -49.2515 7.68198
    endloop
  endfacet
  facet normal 0 0 1
    outer loop
      vertex -139.603 -47.8834 10.682
      vertex -141.651 -53.9499 10.682
      vertex -137.893 -52.5818 10.682
    endloop
  endfacet
  facet normal 0 -0 1
    outer loop
      vertex -141.651 -53.9499 10.682
      vertex -139.603 -47.8834 10.682
      vertex -143.361 -49.2515 10.682
    endloop
  endfacet
  facet normal -0.34202 0.939693 5.7568e-08
    outer loop
      vertex -65.9646 -21.0813 7.68198
      vertex -67.1323 -21.5063 10.682
      vertex -63.3735 -20.1383 10.682
    endloop
  endfacet
  facet normal -0.34202 0.939693 0
    outer loop
      vertex -65.9646 -21.0813 7.68198
      vertex -63.3735 -20.1383 10.682
      vertex -63.3735 -20.1383 7.68198
    endloop
  endfacet
  facet normal -0.34202 0.939693 2.73603e-07
    outer loop
      vertex -68.129 -21.8691 7.5
      vertex -67.1323 -21.5063 10.682
      vertex -65.9646 -21.0813 7.68198
    endloop
  endfacet
  facet normal -0.342022 0.939692 1.0375e-06
    outer loop
      vertex -67.1323 -21.5063 10.682
      vertex -68.129 -21.8691 7.5
      vertex -69.1257 -22.2319 8.56066
    endloop
  endfacet
  facet normal -0.34202 0.939693 -7.40673e-07
    outer loop
      vertex -68.129 -21.8691 7.5
      vertex -65.9646 -21.0813 7.68198
      vertex -67.1323 -21.5063 6.43934
    endloop
  endfacet
  facet normal 0.342021 -0.939692 -6.61451e-07
    outer loop
      vertex -65.4222 -26.2048 10.682
      vertex -66.4189 -26.5676 7.5
      vertex -64.2545 -25.7798 7.68198
    endloop
  endfacet
  facet normal 0.342021 -0.939692 1.79062e-06
    outer loop
      vertex -64.2545 -25.7798 7.68198
      vertex -66.4189 -26.5676 7.5
      vertex -65.4222 -26.2048 6.43934
    endloop
  endfacet
  facet normal 0.342019 -0.939693 0
    outer loop
      vertex -66.4189 -26.5676 7.5
      vertex -65.4222 -26.2048 10.682
      vertex -67.4156 -26.9303 8.56066
    endloop
  endfacet
  facet normal 0.34202 -0.939693 -7.92264e-07
    outer loop
      vertex -65.4222 -26.2048 10.682
      vertex -64.2545 -25.7798 7.68198
      vertex -61.6634 -24.8367 10.682
    endloop
  endfacet
  facet normal 0.34202 -0.939693 -5.97441e-07
    outer loop
      vertex -61.6634 -24.8367 10.682
      vertex -64.2545 -25.7798 7.68198
      vertex -61.6634 -24.8367 7.68198
    endloop
  endfacet
  facet normal -0.664462 -0.241845 -0.707107
    outer loop
      vertex -67.4156 -26.9303 8.56066
      vertex -68.129 -21.8691 7.5
      vertex -66.4189 -26.5676 7.5
    endloop
  endfacet
  facet normal -0.664465 -0.241845 -0.707105
    outer loop
      vertex -68.129 -21.8691 7.5
      vertex -67.4156 -26.9303 8.56066
      vertex -69.1257 -22.2319 8.56066
    endloop
  endfacet
  facet normal -0.664462 -0.241845 0.707107
    outer loop
      vertex -67.1323 -21.5063 10.682
      vertex -67.4156 -26.9303 8.56066
      vertex -65.4222 -26.2048 10.682
    endloop
  endfacet
  facet normal -0.664464 -0.241845 0.707106
    outer loop
      vertex -67.4156 -26.9303 8.56066
      vertex -67.1323 -21.5063 10.682
      vertex -69.1257 -22.2319 8.56066
    endloop
  endfacet
  facet normal 0.664465 0.241845 -0.707105
    outer loop
      vertex -65.4222 -26.2048 6.43934
      vertex -65.9646 -21.0813 7.68198
      vertex -64.2545 -25.7798 7.68198
    endloop
  endfacet
  facet normal 0.664462 0.241845 -0.707107
    outer loop
      vertex -65.9646 -21.0813 7.68198
      vertex -65.4222 -26.2048 6.43934
      vertex -67.1323 -21.5063 6.43934
    endloop
  endfacet
  facet normal 0.939692 0.34202 0
    outer loop
      vertex -63.3735 -20.1383 10.682
      vertex -61.6634 -24.8367 7.68198
      vertex -63.3735 -20.1383 7.68198
    endloop
  endfacet
  facet normal 0.939693 0.34202 2.17451e-07
    outer loop
      vertex -61.6634 -24.8367 7.68198
      vertex -63.3735 -20.1383 10.682
      vertex -61.6634 -24.8367 10.682
    endloop
  endfacet
  facet normal 0 0 -1
    outer loop
      vertex -64.2545 -25.7798 7.68198
      vertex -63.3735 -20.1383 7.68198
      vertex -61.6634 -24.8367 7.68198
    endloop
  endfacet
  facet normal 0 0 -1
    outer loop
      vertex -63.3735 -20.1383 7.68198
      vertex -64.2545 -25.7798 7.68198
      vertex -65.9646 -21.0813 7.68198
    endloop
  endfacet
  facet normal 0 0 1
    outer loop
      vertex -63.3735 -20.1383 10.682
      vertex -65.4222 -26.2048 10.682
      vertex -61.6634 -24.8367 10.682
    endloop
  endfacet
  facet normal 0 -0 1
    outer loop
      vertex -65.4222 -26.2048 10.682
      vertex -63.3735 -20.1383 10.682
      vertex -67.1323 -21.5063 10.682
    endloop
  endfacet
  facet normal -6.12324e-17 -1 0
    outer loop
      vertex -80.125 4.90624e-15 0
      vertex -76 4.65366e-15 5
      vertex -80.125 4.90624e-15 5
    endloop
  endfacet
  facet normal -6.12324e-17 -1 -0
    outer loop
      vertex -76 4.65366e-15 5
      vertex -80.125 4.90624e-15 0
      vertex -76 4.65366e-15 0
    endloop
  endfacet
  facet normal 0 0 1
    outer loop
      vertex -73.9375 8.25 5
      vertex -76 4.125 5
      vertex -73.9375 4.125 5
    endloop
  endfacet
  facet normal 0 0 1
    outer loop
      vertex -76 4.125 5
      vertex -80.125 4.125 5
      vertex -76 4.65366e-15 5
    endloop
  endfacet
  facet normal 0 0 1
    outer loop
      vertex -73.9375 8.25 5
      vertex -80.125 4.125 5
      vertex -76 4.125 5
    endloop
  endfacet
  facet normal -0 0 1
    outer loop
      vertex -82.1875 8.25 5
      vertex -80.125 4.125 5
      vertex -73.9375 8.25 5
    endloop
  endfacet
  facet normal 0 0 1
    outer loop
      vertex -80.125 4.125 5
      vertex -82.1875 8.25 5
      vertex -82.1875 4.125 5
    endloop
  endfacet
  facet normal 0 0 1
    outer loop
      vertex -76 4.65366e-15 5
      vertex -80.125 4.125 5
      vertex -80.125 4.90624e-15 5
    endloop
  endfacet
  facet normal 0 1 -0
    outer loop
      vertex -73.9375 8.25 0
      vertex -82.1875 8.25 5
      vertex -73.9375 8.25 5
    endloop
  endfacet
  facet normal 0 1 0
    outer loop
      vertex -82.1875 8.25 5
      vertex -73.9375 8.25 0
      vertex -82.1875 8.25 0
    endloop
  endfacet
  facet normal 0 0 -1
    outer loop
      vertex -76 4.65366e-15 0
      vertex -80.125 4.90624e-15 0
      vertex -76 4.125 0
    endloop
  endfacet
  facet normal 0 0 -1
    outer loop
      vertex -76 4.125 0
      vertex -73.9375 8.25 0
      vertex -73.9375 4.125 0
    endloop
  endfacet
  facet normal 0 0 -1
    outer loop
      vertex -80.125 4.125 0
      vertex -76 4.125 0
      vertex -80.125 4.90624e-15 0
    endloop
  endfacet
  facet normal 0 0 -1
    outer loop
      vertex -76 4.125 0
      vertex -80.125 4.125 0
      vertex -73.9375 8.25 0
    endloop
  endfacet
  facet normal 0 0 -1
    outer loop
      vertex -82.1875 8.25 0
      vertex -80.125 4.125 0
      vertex -82.1875 4.125 0
    endloop
  endfacet
  facet normal 0 0 -1
    outer loop
      vertex -80.125 4.125 0
      vertex -82.1875 8.25 0
      vertex -73.9375 8.25 0
    endloop
  endfacet
  facet normal 1 -0 0
    outer loop
      vertex -76 4.65366e-15 5
      vertex -76 4.125 0
      vertex -76 4.125 5
    endloop
  endfacet
  facet normal 1 0 0
    outer loop
      vertex -76 4.125 0
      vertex -76 4.65366e-15 5
      vertex -76 4.65366e-15 0
    endloop
  endfacet
  facet normal -1 0 0
    outer loop
      vertex -80.125 4.90624e-15 0
      vertex -80.125 4.125 5
      vertex -80.125 4.125 0
    endloop
  endfacet
  facet normal -1 -0 0
    outer loop
      vertex -80.125 4.125 5
      vertex -80.125 4.90624e-15 0
      vertex -80.125 4.90624e-15 5
    endloop
  endfacet
  facet normal -1 0 0
    outer loop
      vertex -82.1875 4.125 0
      vertex -82.1875 8.25 5
      vertex -82.1875 8.25 0
    endloop
  endfacet
  facet normal -1 -0 0
    outer loop
      vertex -82.1875 8.25 5
      vertex -82.1875 4.125 0
      vertex -82.1875 4.125 5
    endloop
  endfacet
  facet normal 1 -0 0
    outer loop
      vertex -73.9375 4.125 5
      vertex -73.9375 8.25 0
      vertex -73.9375 8.25 5
    endloop
  endfacet
  facet normal 1 0 0
    outer loop
      vertex -73.9375 8.25 0
      vertex -73.9375 4.125 5
      vertex -73.9375 4.125 0
    endloop
  endfacet
  facet normal 0 -1 0
    outer loop
      vertex -82.1875 4.125 0
      vertex -80.125 4.125 5
      vertex -82.1875 4.125 5
    endloop
  endfacet
  facet normal 0 -1 -0
    outer loop
      vertex -80.125 4.125 5
      vertex -82.1875 4.125 0
      vertex -80.125 4.125 0
    endloop
  endfacet
  facet normal 0 -1 0
    outer loop
      vertex -76 4.125 0
      vertex -73.9375 4.125 5
      vertex -76 4.125 5
    endloop
  endfacet
  facet normal 0 -1 -0
    outer loop
      vertex -73.9375 4.125 5
      vertex -76 4.125 0
      vertex -73.9375 4.125 0
    endloop
  endfacet
  facet normal -6.12324e-17 -1 0
    outer loop
      vertex -142 8.69499e-15 0
      vertex -137.875 8.44241e-15 5
      vertex -142 8.69499e-15 5
    endloop
  endfacet
  facet normal -6.12324e-17 -1 -0
    outer loop
      vertex -137.875 8.44241e-15 5
      vertex -142 8.69499e-15 0
      vertex -137.875 8.44241e-15 0
    endloop
  endfacet
  facet normal 0 0 1
    outer loop
      vertex -135.812 8.25 5
      vertex -137.875 4.125 5
      vertex -135.812 4.125 5
    endloop
  endfacet
  facet normal 0 0 1
    outer loop
      vertex -137.875 4.125 5
      vertex -142 4.125 5
      vertex -137.875 8.44241e-15 5
    endloop
  endfacet
  facet normal 0 0 1
    outer loop
      vertex -135.812 8.25 5
      vertex -142 4.125 5
      vertex -137.875 4.125 5
    endloop
  endfacet
  facet normal -0 0 1
    outer loop
      vertex -144.062 8.25 5
      vertex -142 4.125 5
      vertex -135.812 8.25 5
    endloop
  endfacet
  facet normal 0 0 1
    outer loop
      vertex -142 4.125 5
      vertex -144.062 8.25 5
      vertex -144.062 4.125 5
    endloop
  endfacet
  facet normal 0 0 1
    outer loop
      vertex -137.875 8.44241e-15 5
      vertex -142 4.125 5
      vertex -142 8.69499e-15 5
    endloop
  endfacet
  facet normal 0 1 -0
    outer loop
      vertex -135.812 8.25 0
      vertex -144.062 8.25 5
      vertex -135.812 8.25 5
    endloop
  endfacet
  facet normal 0 1 0
    outer loop
      vertex -144.062 8.25 5
      vertex -135.812 8.25 0
      vertex -144.062 8.25 0
    endloop
  endfacet
  facet normal 0 0 -1
    outer loop
      vertex -137.875 8.44241e-15 0
      vertex -142 8.69499e-15 0
      vertex -137.875 4.125 0
    endloop
  endfacet
  facet normal 0 0 -1
    outer loop
      vertex -137.875 4.125 0
      vertex -135.812 8.25 0
      vertex -135.812 4.125 0
    endloop
  endfacet
  facet normal 0 0 -1
    outer loop
      vertex -142 4.125 0
      vertex -137.875 4.125 0
      vertex -142 8.69499e-15 0
    endloop
  endfacet
  facet normal 0 0 -1
    outer loop
      vertex -137.875 4.125 0
      vertex -142 4.125 0
      vertex -135.812 8.25 0
    endloop
  endfacet
  facet normal 0 0 -1
    outer loop
      vertex -144.062 8.25 0
      vertex -142 4.125 0
      vertex -144.062 4.125 0
    endloop
  endfacet
  facet normal 0 0 -1
    outer loop
      vertex -142 4.125 0
      vertex -144.062 8.25 0
      vertex -135.812 8.25 0
    endloop
  endfacet
  facet normal 1 -0 0
    outer loop
      vertex -137.875 8.44241e-15 5
      vertex -137.875 4.125 0
      vertex -137.875 4.125 5
    endloop
  endfacet
  facet normal 1 0 0
    outer loop
      vertex -137.875 4.125 0
      vertex -137.875 8.44241e-15 5
      vertex -137.875 8.44241e-15 0
    endloop
  endfacet
  facet normal -1 0 0
    outer loop
      vertex -142 8.69499e-15 0
      vertex -142 4.125 5
      vertex -142 4.125 0
    endloop
  endfacet
  facet normal -1 -0 0
    outer loop
      vertex -142 4.125 5
      vertex -142 8.69499e-15 0
      vertex -142 8.69499e-15 5
    endloop
  endfacet
  facet normal -1 0 0
    outer loop
      vertex -144.062 4.125 0
      vertex -144.062 8.25 5
      vertex -144.062 8.25 0
    endloop
  endfacet
  facet normal -1 -0 0
    outer loop
      vertex -144.062 8.25 5
      vertex -144.062 4.125 0
      vertex -144.062 4.125 5
    endloop
  endfacet
  facet normal 1 -0 0
    outer loop
      vertex -135.812 4.125 5
      vertex -135.812 8.25 0
      vertex -135.812 8.25 5
    endloop
  endfacet
  facet normal 1 0 0
    outer loop
      vertex -135.812 8.25 0
      vertex -135.812 4.125 5
      vertex -135.812 4.125 0
    endloop
  endfacet
  facet normal 0 -1 0
    outer loop
      vertex -144.062 4.125 0
      vertex -142 4.125 5
      vertex -144.062 4.125 5
    endloop
  endfacet
  facet normal 0 -1 -0
    outer loop
      vertex -142 4.125 5
      vertex -144.062 4.125 0
      vertex -142 4.125 0
    endloop
  endfacet
  facet normal 0 -1 0
    outer loop
      vertex -137.875 4.125 0
      vertex -135.812 4.125 5
      vertex -137.875 4.125 5
    endloop
  endfacet
  facet normal 0 -1 -0
    outer loop
      vertex -135.812 4.125 5
      vertex -137.875 4.125 0
      vertex -135.812 4.125 0
    endloop
  endfacet
endsolid OpenSCAD_Model
